<svg width="24" height="24" viewBox="0 0 24 24" fill="none" xmlns="http://www.w3.org/2000/svg">
<path d="M8.81941 1.45721C6.35714 2.18909 4.23115 3.76448 2.81427 5.90714C2.61968 6.25823 2.49817 6.64504 2.45707 7.04433V3.20267H0.999138V9.03442H6.83088V7.57648H3.53595C5.16829 4.43622 8.39479 2.44764 11.9337 2.40081C16.1305 2.4496 19.8091 5.21891 21.0166 9.23853L22.4162 8.82301C20.6956 3.03433 14.6081 -0.263432 8.81941 1.45721Z" fill="#777777"/>
<path d="M17.0362 14.8618V16.3197H20.3312C18.6988 19.46 15.4723 21.4485 11.9334 21.4954C7.73664 21.4466 4.05804 18.6773 2.85051 14.6577L1.45089 15.0732C3.17891 20.8596 9.27062 24.1496 15.0571 22.4216C17.5915 21.6648 19.7657 20.0148 21.1768 17.7776C21.3279 17.4923 21.408 17.1747 21.41 16.8519V20.6935H22.868V14.8618H17.0362Z" fill="#777777"/>
<path fill-rule="evenodd" clip-rule="evenodd" d="M2.76448 5.87422C4.1891 3.71986 6.3267 2.13587 8.80241 1.39999C14.6227 -0.330034 20.7434 2.98572 22.4734 8.80601L22.4904 8.86324L20.9765 9.31267L20.9594 9.2557C19.7595 5.2613 16.1041 2.50931 11.9337 2.4605C8.44998 2.50687 5.27096 4.4467 3.63481 7.5168H6.89056V9.0941H0.939453V3.14299H2.51676V6.45394C2.5783 6.2546 2.66041 6.06162 2.76206 5.87821L2.76448 5.87422ZM2.51676 6.68378C2.48955 6.80237 2.46958 6.92277 2.45707 7.04433V3.20267H0.999138V9.03442H6.83088V7.57648H3.53595C3.54631 7.55654 3.55674 7.53664 3.56723 7.5168C5.20928 4.41105 8.41726 2.44735 11.9337 2.40081C16.1305 2.4496 19.8091 5.21891 21.0166 9.23853L22.4162 8.82301C22.4105 8.80393 22.4048 8.78488 22.399 8.76585C20.6554 3.01264 14.589 -0.25776 8.81941 1.45721C6.35714 2.18909 4.23115 3.76448 2.81427 5.90714C2.67892 6.15135 2.57893 6.41283 2.51676 6.68378ZM16.9765 14.8021H22.9276V20.7532H21.3503V17.5309C21.3169 17.625 21.2765 17.7168 21.2295 17.8056L21.2274 17.8096C19.8086 20.059 17.6224 21.7178 15.0742 22.4788C9.25611 24.2163 3.13115 20.9083 1.3937 15.0903L1.3766 15.033L2.89055 14.5835L2.90767 14.6405C4.10762 18.6349 7.76297 21.3869 11.9334 21.4357C15.4171 21.3893 18.5961 19.4495 20.2323 16.3794H16.9765V14.8021ZM20.3312 16.3197C20.3208 16.3396 20.3104 16.3595 20.2999 16.3794C18.6578 19.4851 15.4498 21.4488 11.9334 21.4954C7.73664 21.4466 4.05804 18.6773 2.85051 14.6577L1.45089 15.0732C1.45659 15.0922 1.46233 15.1113 1.46812 15.1303C3.21907 20.8813 9.28969 24.1439 15.0571 22.4216C17.5915 21.6648 19.7657 20.0148 21.1768 17.7776C21.253 17.6337 21.3112 17.4816 21.3503 17.3247C21.3888 17.1706 21.409 17.0119 21.41 16.8519V20.6935H22.868V14.8618H17.0362V16.3197H20.3312Z" fill="#777777"/>
</svg>
