<svg width="20" height="20" viewBox="0 0 20 20" fill="none" xmlns="http://www.w3.org/2000/svg">
<path d="M10 2.65039L2 6.62612V17.3323H2.91429V7.19274L10 3.67133L17.0857 7.19274V17.3323H18V6.62612L10 2.65039ZM4.28437 17.3324H9.31295V12.7152H4.28437V17.3324ZM5.19866 13.6295H8.39866V16.4181H5.19866V13.6295ZM15.713 17.3324H10.6844V12.7152H15.713V17.3324ZM14.7987 13.6295H11.5987V16.4181H14.7987V13.6295ZM12.5129 6.81797H7.48438V11.4351H12.5129V6.81797ZM11.5987 10.5208H8.39866V7.73225H11.5987V10.5208Z" fill="#777777"/>
<path d="M10 2.65039L2 6.62612V17.3323H2.91429V7.19274L10 3.67133L17.0857 7.19274V17.3323H18V6.62612L10 2.65039ZM4.28437 17.3324H9.31295V12.7152H4.28437V17.3324ZM5.19866 13.6295H8.39866V16.4181H5.19866V13.6295ZM15.713 17.3324H10.6844V12.7152H15.713V17.3324ZM14.7987 13.6295H11.5987V16.4181H14.7987V13.6295ZM12.5129 6.81797H7.48438V11.4351H12.5129V6.81797ZM11.5987 10.5208H8.39866V7.73225H11.5987V10.5208Z" stroke="#777777"/>
</svg>
