  <svg xmlns="http://www.w3.org/2000/svg" version="1.1" xmlns:xlink="http://www.w3.org/1999/xlink" xmlns:svgjs="http://svgjs.com/svgjs" width="25" height="25" x="0" y="0" viewBox="0 0 24 24" style="enable-background:new 0 0 512 512" xml:space="preserve" class="icon-dollar"><g><path fill="#b1a8aa" fill-rule="evenodd" d="M12 3.25a8.75 8.75 0 1 0 0 17.5 8.75 8.75 0 0 0 0-17.5zM1.75 12C1.75 6.34 6.34 1.75 12 1.75S22.25 6.34 22.25 12 17.66 22.25 12 22.25 1.75 17.66 1.75 12zM12 5.25a.75.75 0 0 1 .75.75v1.272h.027a2.786 2.786 0 0 1 2.786 2.786.75.75 0 0 1-1.5 0c0-.71-.576-1.286-1.286-1.286h-.027v2.491h.08a2.732 2.732 0 1 1 0 5.465h-.08V18a.75.75 0 0 1-1.5 0v-1.272h-.08a2.732 2.732 0 0 1-2.732-2.733.75.75 0 0 1 1.5 0c0 .681.551 1.233 1.232 1.233h.08v-2.465h-.067a2.746 2.746 0 0 1 0-5.49h.067V6a.75.75 0 0 1 .75-.75zm-.75 3.522h-.067a1.246 1.246 0 0 0 0 2.491h.067zm1.5 3.991v2.465h.08a1.232 1.232 0 0 0 0-2.465z" clip-rule="evenodd" data-original="#000000" class="" opacity="1"></path></g></svg>
