<svg width="32" height="32" viewBox="0 0 32 32" fill="none" xmlns="http://www.w3.org/2000/svg">
<g clip-path="url(#clip0)">
<path d="M12.4501 23.4502C12.3501 23.5502 12.2501 23.5502 12.1501 23.6502L7.6501 25.1502C7.4501 25.2502 7.1501 25.1502 6.9501 24.9502C6.8501 24.7502 6.8501 24.5502 6.8501 24.2502L8.3501 19.7502C8.3501 19.6502 8.4501 19.5502 8.5501 19.4502L21.0501 7.0502C21.3501 6.7502 21.7501 6.7502 22.0501 7.0502L25.0501 10.0502C25.3501 10.3502 25.3501 10.7502 25.0501 11.0502L12.4501 23.4502ZM23.5501 10.5502L21.5501 8.5502L20.2501 9.8502L22.2501 11.8502L23.5501 10.5502ZM21.2501 12.7502L19.2501 10.7502L9.9501 20.0502L11.9501 22.0502L21.2501 12.7502ZM10.7501 22.6502L9.3501 21.2502L8.6501 23.3502L10.7501 22.6502Z" fill="#323232"/>
</g>
<defs>
<clipPath id="clip0">
<rect width="18.3" height="18.3" fill="white" transform="translate(6.8501 6.8501)"/>
</clipPath>
</defs>
</svg>
