<svg width="20" height="24" viewBox="0 0 20 24" fill="none" xmlns="http://www.w3.org/2000/svg">
<path d="M19.0984 19.0994C19.0279 19.0536 18.4969 18.6816 17.9653 17.5564C16.9889 15.49 16.784 12.5792 16.784 10.5012C16.784 10.4921 16.7838 10.4832 16.7835 10.4742C16.7728 7.72781 15.1283 5.36034 12.775 4.29811V2.67356C12.775 1.19934 11.5776 0 10.1059 0H9.88465C8.41287 0 7.21549 1.19934 7.21549 2.67356V4.29802C4.85431 5.36367 3.20651 7.74323 3.20651 10.5012C3.20651 12.5792 3.00157 15.49 2.02521 17.5564C1.4936 18.6816 0.962649 19.0535 0.892056 19.0994C0.594774 19.2369 0.448196 19.5548 0.516587 19.8768C0.585634 20.2021 0.889665 20.4263 1.22168 20.4263H6.37545C6.40423 22.4017 8.01645 24 9.99527 24C11.9741 24 13.5863 22.4017 13.6151 20.4263H18.7689C19.1008 20.4263 19.4049 20.2021 19.474 19.8768C19.5423 19.5548 19.3957 19.2369 19.0984 19.0994ZM8.62179 2.67356C8.62179 1.97602 9.18832 1.40855 9.8847 1.40855H10.1059C10.8023 1.40855 11.3688 1.97602 11.3688 2.67356V3.84155C10.925 3.74981 10.4656 3.70153 9.99509 3.70153C9.52474 3.70153 9.06546 3.74977 8.62184 3.84141V2.67356H8.62179ZM9.99527 22.5915C8.79185 22.5915 7.81024 21.625 7.7817 20.4264H12.2088C12.1803 21.625 11.1987 22.5915 9.99527 22.5915ZM12.8265 19.0177C12.8264 19.0177 2.8241 19.0177 2.8241 19.0177C2.94574 18.8282 3.06954 18.6135 3.19259 18.371C4.13496 16.5127 4.61281 13.8649 4.61281 10.5012C4.61281 7.5285 7.02729 5.11008 9.99504 5.11008C12.9628 5.11008 15.3773 7.5285 15.3773 10.5035C15.3773 10.5122 15.3774 10.5208 15.3777 10.5294C15.3804 13.8797 15.8582 16.518 16.798 18.371C16.921 18.6136 17.0449 18.8282 17.1664 19.0177H12.8265Z" fill="white"/>
</svg>
